<svg xmlns="http://www.w3.org/2000/svg" version="1.1" xmlns:xlink="http://www.w3.org/1999/xlink" xmlns:svgjs="http://svgjs.dev/svgjs" width="2000" height="1937" viewBox="0 0 2000 1937"><g transform="matrix(1,0,0,1,-1.4618607558963959,0.785658664999346)"><svg viewBox="0 0 255 247" data-background-color="#ffffff" preserveAspectRatio="xMidYMid meet" height="1937" width="2000" xmlns="http://www.w3.org/2000/svg" xmlns:xlink="http://www.w3.org/1999/xlink"><g id="tight-bounds" transform="matrix(1,0,0,1,0.18638724637679616,-0.09997365579206985)"><svg viewBox="0 0 254.62722550724638 247.2" height="247.2" width="254.62722550724638"><g><svg viewBox="0 0 254.62722550724638 247.2" height="247.2" width="254.62722550724638"><g><svg viewBox="0 0 254.62722550724638 247.2" height="247.2" width="254.62722550724638"><g><svg viewBox="0 0 254.62722550724638 247.2" height="247.2" width="254.62722550724638"><g id="textblocktransform"><svg viewBox="0 0 254.62722550724638 247.2" height="247.2" width="254.62722550724638" id="textblock"><g><svg viewBox="0 0 254.62722550724638 247.2" height="247.2" width="254.62722550724638"><path d="M254.031 53.02C252.834 27.36 249.422 20.227 249.422 20.227 238.948-6.202 225.876-0.506 214.133 3.292 193.4 3.446 172.751 9.091 152.066 12.119 108.648 12.581 64.86 4.986 21.658 23.717 17.6 29.464-4.21 24.846 0.722 56.304 2.015 69.39 6.731 83.913 6.587 95.922 7.234 98.026 8.132 93.202 8.515 96.23 9.855 104.39 12.046 100.541 13.842 105.365 11.34 118.246 13.135 128.971 14.847 140.21 11.831 143.135 7.964 141.749 6.228 151.449 6.049 158.479 5.079 157.145 4.014 156.837 3.236 156.632 1.667 157.402 1.931 159.608 2.829 167.152-1.026 171.514 1.392 178.904-0.272 186.91 2.541 193.838 2.158 202.511 2.11 204.255 2.374 205.744 2.793 206.154 4.648 208.361 1.943 212.672 2.23 217.342 21.263 249.262 41.913 227.195 61.413 241.872 66.476 231.608 62.67 245.516 64.693 243.36 66.273 240.846 67.422 251.263 69.205 245.362 69.481 243.668 69.062 239.665 70.043 240.435 70.558 240.846 71.013 240.743 71.085 238.382 71.193 234.841 70.247 237.048 69.996 235.201 72.713 225.861 72.042 248.081 74.592 247.158 74.473 244.438 73.73 240.538 75.251 241.051 76.759 237.151 76.807 233.918 78.147 242.693 78.195 244.592 78.435 245.926 78.818 246.85 83.008 237.305 87.173 250.237 91.566 245.926 94.26 241.205 96.846 248.492 99.575 246.696 100.532 245.259 101.502 242.693 102.424 247.004 113.712 247.928 125.742 244.079 136.444 247.158 165.042 241.41 195.603 249.518 225.757 241.923 232.867 238.998 240.253 234.841 247.184 231.506 247.184 231.506 252.798 222.371 252.798 181.316S253.995 145.393 254.175 112.703C254.354 80.013 255.192 78.679 253.995 53.02Z" opacity="1" fill="#ff0044" data-fill-palette-color="tertiary"></path><g transform="matrix(1,0,0,1,55.76832,26.230666666666668)"><svg width="143.09058550724637" viewBox="4.4 -34.5 25.35 34.5" height="194.73866666666666" data-palette-color="#ffffff"><path d="M10.2 0L4.4 0 4.4-34.5 10.2-34.5 10.2 0ZM10.45-18.45L22.4-34.5 28.8-34.5 16.75-18.8 29.75 0 22.8 0 10.45-18.45Z" opacity="1" transform="matrix(1,0,0,1,0,0)" fill="#ffffff" class="wordmark-text-0" data-fill-palette-color="quaternary" id="text-0"></path></svg></g></svg></g></svg></g></svg></g></svg></g></svg></g><defs></defs></svg><rect width="254.62722550724638" height="247.2" fill="none" stroke="none" visibility="hidden"></rect></g></svg></g></svg>